<svg width="24" height="24" viewBox="0 0 24 24" fill="none" xmlns="http://www.w3.org/2000/svg">
<path d="M12.8672 5.26154C13.8656 5.26154 15.1172 4.5658 15.8625 3.63814C16.5375 2.79746 17.0297 1.62339 17.0297 0.449332C17.0297 0.289891 17.0156 0.130451 16.9875 0C15.8766 0.0434838 14.5406 0.768213 13.7391 1.73935C13.1063 2.47858 12.5297 3.63814 12.5297 4.8267C12.5297 5.00064 12.5578 5.17457 12.5719 5.23255C12.6422 5.24704 12.7547 5.26154 12.8672 5.26154ZM9.35156 22.8C10.7156 22.8 11.3203 21.8578 13.0219 21.8578C14.7516 21.8578 15.1313 22.771 16.65 22.771C18.1406 22.771 19.1391 21.3505 20.0813 19.9591C21.1359 18.3647 21.5719 16.7992 21.6 16.7268C21.5016 16.6978 18.6469 15.4947 18.6469 12.1175C18.6469 9.18957 20.8969 7.87056 21.0234 7.7691C19.5328 5.56592 17.2688 5.50795 16.65 5.50795C14.9766 5.50795 13.6125 6.55156 12.7547 6.55156C11.8266 6.55156 10.6031 5.56593 9.15469 5.56593C6.39844 5.56593 3.6 7.91405 3.6 12.3494C3.6 15.1034 4.64063 18.0168 5.92031 19.9011C7.01719 21.4955 7.97344 22.8 9.35156 22.8Z" fill="black"/>
</svg>
