<svg width="24" height="24" viewBox="0 0 24 24" fill="none" xmlns="http://www.w3.org/2000/svg">
<g clip-path="url(#clip0_19_430)">
<path d="M2.10938 0.5H21.8906C22.7776 0.5 23.5 1.22243 23.5 2.10938V21.8906C23.5 22.7776 22.7776 23.5 21.8906 23.5H2.10938C1.22243 23.5 0.5 22.7776 0.5 21.8906V2.10938C0.5 1.22243 1.22243 0.5 2.10938 0.5ZM21.8906 23.0938C22.5544 23.0938 23.0938 22.5544 23.0938 21.8906V2.10938C23.0938 1.4456 22.5544 0.90625 21.8906 0.90625H2.10938C1.4456 0.90625 0.90625 1.4456 0.90625 2.10938V21.8906C0.90625 22.5544 1.4456 23.0938 2.10938 23.0938H21.8906Z" stroke="black"/>
<path d="M20.3837 6.07214C20.41 6.2569 20.3619 6.44458 20.2496 6.59381L16.5379 11.5318C16.3048 11.842 15.8644 11.9048 15.5541 11.6719C14.521 10.8972 13.292 10.4875 12.0002 10.4875C10.7082 10.4875 9.47936 10.8972 8.44628 11.6719M20.3837 6.07214L8.1463 11.2719C8.10927 11.2996 8.0672 11.3125 8.02495 11.3125C7.96189 11.3125 7.90176 11.2843 7.86195 11.2314C7.86193 11.2313 7.8619 11.2313 7.86188 11.2313L4.15036 6.29358C4.15032 6.29353 4.15029 6.29348 4.15025 6.29344C4.15024 6.29342 4.15023 6.2934 4.15022 6.29338C4.11794 6.25029 4.10395 6.19595 4.11156 6.1423L3.6165 6.07214L4.11149 6.14279C4.1191 6.08942 4.14762 6.04112 4.19103 6.00853C6.4617 4.30569 9.1606 3.40625 12.0002 3.40625C14.8397 3.40625 17.5386 4.30569 19.8093 6.00853C19.8526 6.04107 19.8811 6.08941 19.8886 6.14237L19.8887 6.14279C19.8963 6.19616 19.8824 6.25027 19.85 6.29326L19.8499 6.29338L16.1382 11.2314L16.1382 11.2314C16.0708 11.3211 15.9436 11.3391 15.8542 11.272L15.854 11.2719C14.7344 10.4322 13.4001 9.98755 12.0002 9.98755C10.6001 9.98755 9.266 10.4322 8.14637 11.2718L8.44628 11.6719M20.3837 6.07214C20.3575 5.88757 20.2588 5.72076 20.1095 5.6087L20.3837 6.07214ZM8.44628 11.6719C8.31975 11.7667 8.17162 11.8125 8.02495 11.8125C7.81145 11.8125 7.60051 11.7156 7.46227 11.5318L8.44628 11.6719ZM15.5551 10.5782L15.9427 10.8154L16.2158 10.4522L19.0903 6.62782L19.4087 6.20428L18.9674 5.91098C16.8986 4.53588 14.5035 3.8125 12.0002 3.8125C9.49681 3.8125 7.10175 4.53588 5.0329 5.91098L4.59164 6.20428L4.91 6.62782L7.78457 10.4522L8.05762 10.8154L8.44524 10.5782C9.32859 10.0376 10.3123 9.71036 11.3441 9.61277L11.797 9.56993V9.11499V6.97192C11.797 6.8597 11.8879 6.7688 12.0002 6.7688C12.1124 6.7688 12.2033 6.8597 12.2033 6.97192V9.11499V9.56993L12.6562 9.61277C13.6881 9.71036 14.6717 10.0376 15.5551 10.5782Z" stroke="black"/>
</g>
<defs>
<clipPath id="clip0_19_430">
<rect width="24" height="24" fill="white"/>
</clipPath>
</defs>
</svg>
